<svg width="153" height="123" viewBox="0 0 153 123" fill="none" xmlns="http://www.w3.org/2000/svg">
<g clip-path="url(#clip0_13_33)">
<rect width="153" height="123" fill="white"/>
<g filter="url(#filter0_i_13_33)">
<ellipse cx="121.5" cy="101.5" rx="22.5" ry="21.5" fill="url(#paint0_linear_13_33)"/>
</g>
<g filter="url(#filter1_i_13_33)">
<ellipse cx="28" cy="101.5" rx="22" ry="21.5" fill="url(#paint1_linear_13_33)"/>
</g>
<g filter="url(#filter2_d_13_33)">
<path d="M32.2041 63.1846C32.2041 62.8551 32.2507 62.5186 32.3438 62.1748C32.4368 61.8239 32.5622 61.5339 32.7197 61.3047L33.751 61.498L34.9111 51.4434L33.2568 51.207C33.1208 50.849 33.0527 50.4837 33.0527 50.1113C33.0527 49.7318 33.1279 49.3451 33.2783 48.9512C33.6579 48.7721 34.306 48.6289 35.2227 48.5215C36.1465 48.4069 36.9665 48.3496 37.6826 48.3496C38.3486 48.3496 39.1686 48.3639 40.1426 48.3926L40.5186 48.5645C40.6761 49.0085 40.891 49.7712 41.1631 50.8525C41.4424 51.9268 41.915 53.8245 42.5811 56.5459C42.6885 56.9684 42.8066 57.4482 42.9355 57.9854C43.2793 56.7393 43.7018 54.9775 44.2031 52.7002L44.4717 51.5293H44.5254L42.7422 51.2285C42.5703 50.8275 42.4844 50.3978 42.4844 49.9395C42.4844 49.6387 42.5238 49.3128 42.6025 48.9619C43.2972 48.7399 44.0205 48.5824 44.7725 48.4893C45.5316 48.3962 46.3587 48.3496 47.2539 48.3496H47.6084C47.988 48.3496 48.5286 48.3639 49.2305 48.3926L49.6064 48.5645C50.0648 50.2259 50.5016 52.2419 50.917 54.6123C51.3395 56.9756 51.6582 59.1455 51.873 61.1221L51.9053 61.3906C51.9124 61.4408 51.9303 61.6126 51.959 61.9062C51.9876 62.1927 52.002 62.4684 52.002 62.7334C52.002 63.0557 51.9697 63.3743 51.9053 63.6895C51.7979 64.1621 51.6045 64.5524 51.3252 64.8604C51.0459 64.9749 50.7523 65.0609 50.4443 65.1182C50.1436 65.1826 49.7926 65.2148 49.3916 65.2148C48.9977 65.2148 48.6038 65.1683 48.21 65.0752C47.8232 64.9893 47.5654 64.8604 47.4365 64.6885L47.8232 62.2285L47.1787 55.4717L47.2324 51.873H46.8994L46.373 55.5576C45.6712 58.1572 45.0303 60.1696 44.4502 61.5947C44.6507 61.9886 44.8226 62.4255 44.9658 62.9053C45.1162 63.3851 45.2093 63.8542 45.2451 64.3125C44.9443 64.599 44.5326 64.821 44.0098 64.9785C43.4941 65.1361 42.9463 65.2148 42.3662 65.2148C41.7718 65.2148 41.2275 65.1325 40.7334 64.9678C40.2464 64.8031 39.8919 64.5739 39.6699 64.2803C39.7057 63.557 39.8848 62.8587 40.207 62.1855L38.2949 55.2783L37.5 52.0234L37.1348 52.0771L37.6611 55.7188C37.6325 56.9863 37.5859 58.2754 37.5215 59.5859C37.457 60.8965 37.3854 61.9349 37.3066 62.7012H37.3174C37.2601 63.1523 37.1061 63.5534 36.8555 63.9043C36.612 64.248 36.3005 64.5166 35.9209 64.71C35.5485 64.9033 35.1439 65 34.707 65C33.5612 65 32.734 64.5059 32.2256 63.5176C32.2113 63.3743 32.2041 63.2633 32.2041 63.1846Z" fill="#0693E3"/>
<path d="M57.691 51.6367C57.5621 51.2285 57.4726 50.9385 57.4225 50.7666C57.3795 50.5876 57.3473 50.3978 57.3258 50.1973C57.3115 49.9896 57.3043 49.6888 57.3043 49.2949C57.9059 48.9583 58.468 48.7184 58.9908 48.5752C59.5208 48.4248 60.1187 48.3496 60.7848 48.3496C62.7685 48.3496 63.7604 49.3415 63.7604 51.3252C63.7604 51.9482 63.6959 52.8721 63.567 54.0967C63.4452 55.3213 63.2841 56.8037 63.0836 58.5439C62.9618 59.5537 62.8723 60.3379 62.815 60.8965C62.9511 61.0469 63.1122 61.1436 63.2984 61.1865C63.3987 61.2295 63.6959 61.0648 64.19 60.6924C64.6913 60.3128 65.1998 59.8617 65.7154 59.3389C66.2382 58.8089 66.6106 58.3327 66.8326 57.9102C66.6321 54.043 66.3206 51.1855 65.898 49.3379C66.2203 49.0156 66.6393 48.7721 67.1549 48.6074C67.6705 48.4355 68.1718 48.3496 68.6588 48.3496C69.0742 48.3496 69.4716 48.3962 69.8512 48.4893C70.2379 48.5752 70.5709 48.722 70.8502 48.9297C71.0722 49.4167 71.1832 50.2152 71.1832 51.3252C71.1832 51.9411 71.1223 52.9508 71.0006 54.3545C70.886 55.751 70.7392 57.1367 70.5602 58.5117C70.3883 59.8796 70.22 60.875 70.0553 61.498L71.3766 60.918C71.5986 61.1471 71.7955 61.4372 71.9674 61.7881C72.1393 62.1318 72.2503 62.5257 72.3004 62.9697C72.1858 63.1989 71.9495 63.4925 71.5914 63.8506C71.2333 64.2087 70.7929 64.5273 70.2701 64.8066C69.7545 65.0788 69.2102 65.2148 68.6373 65.2148C67.9999 65.2148 67.5094 65.0251 67.1656 64.6455C66.829 64.266 66.6607 63.779 66.6607 63.1846C66.6607 63.0413 66.6894 62.7298 66.7467 62.25C66.8111 61.7702 66.8684 61.473 66.9186 61.3584L66.5963 61.251C66.2096 62.0173 65.8049 62.6868 65.3824 63.2598C64.9671 63.8327 64.4729 64.3018 63.9 64.667C63.3271 65.0322 62.6754 65.2148 61.9449 65.2148C60.8062 65.2148 60.0077 64.8102 59.5494 64.001C59.0911 63.1846 58.8619 62.1641 58.8619 60.9395C58.8619 59.457 58.8798 57.7633 58.9156 55.8584C58.9514 53.9535 59.0087 52.6035 59.0875 51.8086L57.691 51.6367ZM95.409 64.4736C95.409 64.1657 95.3947 63.2526 95.366 61.7344C95.3087 59.5143 95.2801 57.5951 95.2801 55.9766C95.2801 54.3939 95.3087 53.0547 95.366 51.959L93.615 51.7334C93.5076 51.2965 93.436 50.9349 93.4002 50.6484C93.3644 50.3548 93.3501 50.0182 93.3572 49.6387C93.5005 49.4596 93.7654 49.2699 94.1521 49.0693C94.546 48.8617 94.99 48.6898 95.4842 48.5537C95.9855 48.4176 96.4689 48.3496 96.9344 48.3496C97.7651 48.3496 98.4419 48.5358 98.9646 48.9082C99.4946 49.2806 99.7739 49.8177 99.8025 50.5195C99.8169 50.9349 99.824 51.2894 99.824 51.583C99.824 52.9365 99.7667 54.5693 99.6521 56.4814C99.5376 58.3864 99.3836 60.6387 99.1902 63.2383L99.0828 64.7529C98.5171 65.068 97.8725 65.2256 97.1492 65.2256C96.5333 65.2256 95.9533 65.1146 95.409 64.8926V64.4736Z" fill="#FCB900"/>
<path d="M77.5812 62.6475C77.5812 62.2822 77.6493 61.9134 77.7854 61.541C77.9214 61.1686 78.1327 60.8177 78.4191 60.4883C79.4647 60.9466 80.3742 61.2975 81.1477 61.541C81.9283 61.7845 82.7303 61.9062 83.5539 61.9062C83.7043 61.9062 83.8583 61.8919 84.0158 61.8633C84.1805 61.8346 84.3094 61.7952 84.4025 61.7451C84.4383 61.6663 84.467 61.5661 84.4885 61.4443C84.51 61.3154 84.5207 61.2116 84.5207 61.1328C84.5207 60.7819 84.3524 60.4811 84.0158 60.2305C83.6792 59.9798 83.2352 59.7292 82.6838 59.4785L82.3078 59.2959C81.2336 58.7445 80.3706 58.2503 79.7189 57.8135C79.0744 57.3695 78.5266 56.7894 78.0754 56.0732C77.6314 55.3499 77.4094 54.4655 77.4094 53.4199C77.4094 51.8874 77.8355 50.6592 78.6877 49.7354C79.5471 48.8115 80.9113 48.3496 82.7805 48.3496C84.3775 48.3496 85.6415 48.4463 86.5725 48.6396C86.9592 48.8688 87.2958 49.1087 87.5822 49.3594C87.8758 49.6029 88.1551 49.9001 88.4201 50.251C88.4201 50.7523 88.37 51.2965 88.2697 51.8838C88.1766 52.4639 88.0441 52.9974 87.8723 53.4844C87.7076 53.9714 87.5285 54.3223 87.3352 54.5371C87.1704 54.6159 86.9878 54.6768 86.7873 54.7197C86.5868 54.7555 86.3397 54.7734 86.0461 54.7734C85.7382 54.7734 85.4875 54.752 85.2941 54.709C85.1008 54.666 84.9217 54.5944 84.757 54.4941L84.424 52.2598C84.0087 52.1452 83.5682 52.0628 83.1027 52.0127C82.6372 51.9554 82.3221 51.9303 82.1574 51.9375C81.8924 52.0592 81.7098 52.2311 81.6096 52.4531C81.5165 52.668 81.4699 52.9258 81.4699 53.2266C81.4699 53.5488 81.5559 53.8281 81.7277 54.0645C81.9068 54.2936 82.1216 54.4834 82.3723 54.6338C82.6229 54.7842 82.9452 54.9525 83.3391 55.1387L83.8117 55.375C84.8358 55.9121 85.6415 56.3812 86.2287 56.7822C86.8159 57.1833 87.3065 57.6917 87.7004 58.3076C88.1014 58.9163 88.302 59.654 88.302 60.5205C88.302 61.5303 88.037 62.4004 87.507 63.1309C86.9771 63.8542 86.2967 64.377 85.466 64.6992C85.0148 64.8783 84.5171 65.0072 83.9729 65.0859C83.4286 65.1647 82.7984 65.2041 82.0822 65.2041C81.5952 65.2041 81.0725 65.1432 80.5139 65.0215C79.9553 64.8997 79.411 64.6849 78.8811 64.377C78.3583 64.069 77.9393 63.6572 77.6242 63.1416C77.5956 63.0055 77.5812 62.8408 77.5812 62.6475Z" fill="#FF6900"/>
<path d="M106.061 56.793C106.061 55.1673 106.301 53.7207 106.781 52.4531C107.268 51.1784 108.027 50.1722 109.058 49.4346C110.089 48.6969 111.393 48.3281 112.968 48.3281C114.042 48.3281 115.177 48.4678 116.373 48.7471C116.76 48.9762 117.097 49.2161 117.383 49.4668C117.677 49.7103 117.956 50.0075 118.221 50.3584C118.221 50.8669 118.153 51.5436 118.017 52.3887C117.881 53.2266 117.709 54.0107 117.501 54.7412C117.301 55.4645 117.107 55.9336 116.921 56.1484C116.735 56.2415 116.578 56.306 116.449 56.3418C116.32 56.3704 116.119 56.3848 115.847 56.3848C115.51 56.3848 115.195 56.3597 114.902 56.3096C114.608 56.2594 114.386 56.1914 114.236 56.1055L113.86 52.4854C113.351 52.3421 112.646 52.2705 111.744 52.2705C111.5 52.2705 111.321 52.2741 111.206 52.2813C110.899 53.2695 110.727 54.598 110.691 56.2666C110.684 56.4671 110.68 56.7715 110.68 57.1797C110.68 58.1393 110.73 58.9163 110.83 59.5107C110.924 60.0693 111.024 60.4883 111.131 60.7676C111.239 61.0469 111.425 61.2617 111.69 61.4121C111.962 61.5625 112.367 61.6377 112.904 61.6377C113.627 61.6377 114.293 61.5339 114.902 61.3262C115.518 61.1113 116.187 60.7998 116.911 60.3916C117.183 60.6852 117.39 60.9251 117.534 61.1113C117.684 61.2975 117.82 61.5267 117.942 61.7988C118.071 62.071 118.157 62.3825 118.2 62.7334C118.085 62.9697 117.781 63.2848 117.287 63.6787C116.792 64.0726 116.144 64.4271 115.342 64.7422C114.54 65.0573 113.641 65.2148 112.646 65.2148C110.318 65.2148 108.639 64.488 107.608 63.0342C106.577 61.5804 106.061 59.5 106.061 56.793Z" fill="#00D084"/>
</g>
<g filter="url(#filter3_d_13_33)">
<mask id="path-4-inside-1_13_33" fill="white">
<path d="M13.1642 85.6703C11.3609 75.1798 11.6556 64.3693 14.027 54.0229C16.3984 43.6764 20.787 34.0535 26.8745 25.8519C32.962 17.6504 40.5957 11.0759 49.222 6.60526C57.8484 2.13466 67.251 -0.119964 76.748 0.00491789C86.245 0.1298 95.5983 2.63106 104.129 7.32727C112.66 12.0235 120.155 18.7969 126.071 27.1563C131.986 35.5157 136.174 45.2514 138.33 55.6574C140.485 66.0634 140.555 76.8787 138.535 87.3189L130.99 85.4706C132.767 76.29 132.705 66.7796 130.809 57.6292C128.914 48.4787 125.231 39.9176 120.03 32.5668C114.828 25.216 108.237 19.2598 100.735 15.1302C93.2337 11.0006 85.0089 8.80114 76.6578 8.69132C68.3066 8.58151 60.0384 10.5641 52.4529 14.4953C44.8673 18.4265 38.1546 24.2078 32.8016 31.4198C27.4486 38.6318 23.5895 47.0937 21.5042 56.1919C19.419 65.29 19.1598 74.7962 20.7455 84.0209L13.1642 85.6703Z"/>
</mask>
<path d="M13.1642 85.6703C11.3609 75.1798 11.6556 64.3693 14.027 54.0229C16.3984 43.6764 20.787 34.0535 26.8745 25.8519C32.962 17.6504 40.5957 11.0759 49.222 6.60526C57.8484 2.13466 67.251 -0.119964 76.748 0.00491789C86.245 0.1298 95.5983 2.63106 104.129 7.32727C112.66 12.0235 120.155 18.7969 126.071 27.1563C131.986 35.5157 136.174 45.2514 138.33 55.6574C140.485 66.0634 140.555 76.8787 138.535 87.3189L130.99 85.4706C132.767 76.29 132.705 66.7796 130.809 57.6292C128.914 48.4787 125.231 39.9176 120.03 32.5668C114.828 25.216 108.237 19.2598 100.735 15.1302C93.2337 11.0006 85.0089 8.80114 76.6578 8.69132C68.3066 8.58151 60.0384 10.5641 52.4529 14.4953C44.8673 18.4265 38.1546 24.2078 32.8016 31.4198C27.4486 38.6318 23.5895 47.0937 21.5042 56.1919C19.419 65.29 19.1598 74.7962 20.7455 84.0209L13.1642 85.6703Z" fill="url(#paint2_linear_13_33)" shape-rendering="crispEdges"/>
<path d="M13.1642 85.6703C11.3609 75.1798 11.6556 64.3693 14.027 54.0229C16.3984 43.6764 20.787 34.0535 26.8745 25.8519C32.962 17.6504 40.5957 11.0759 49.222 6.60526C57.8484 2.13466 67.251 -0.119964 76.748 0.00491789C86.245 0.1298 95.5983 2.63106 104.129 7.32727C112.66 12.0235 120.155 18.7969 126.071 27.1563C131.986 35.5157 136.174 45.2514 138.33 55.6574C140.485 66.0634 140.555 76.8787 138.535 87.3189L130.99 85.4706C132.767 76.29 132.705 66.7796 130.809 57.6292C128.914 48.4787 125.231 39.9176 120.03 32.5668C114.828 25.216 108.237 19.2598 100.735 15.1302C93.2337 11.0006 85.0089 8.80114 76.6578 8.69132C68.3066 8.58151 60.0384 10.5641 52.4529 14.4953C44.8673 18.4265 38.1546 24.2078 32.8016 31.4198C27.4486 38.6318 23.5895 47.0937 21.5042 56.1919C19.419 65.29 19.1598 74.7962 20.7455 84.0209L13.1642 85.6703Z" stroke="black" stroke-width="2" shape-rendering="crispEdges" mask="url(#path-4-inside-1_13_33)"/>
</g>
</g>
<defs>
<filter id="filter0_i_13_33" x="99" y="80" width="51" height="53" filterUnits="userSpaceOnUse" color-interpolation-filters="sRGB">
<feFlood flood-opacity="0" result="BackgroundImageFix"/>
<feBlend mode="normal" in="SourceGraphic" in2="BackgroundImageFix" result="shape"/>
<feColorMatrix in="SourceAlpha" type="matrix" values="0 0 0 0 0 0 0 0 0 0 0 0 0 0 0 0 0 0 127 0" result="hardAlpha"/>
<feMorphology radius="7" operator="erode" in="SourceAlpha" result="effect1_innerShadow_13_33"/>
<feOffset dx="6" dy="10"/>
<feGaussianBlur stdDeviation="3.5"/>
<feComposite in2="hardAlpha" operator="arithmetic" k2="-1" k3="1"/>
<feColorMatrix type="matrix" values="0 0 0 0 0 0 0 0 0 0 0 0 0 0 0 0 0 0 0.25 0"/>
<feBlend mode="normal" in2="shape" result="effect1_innerShadow_13_33"/>
</filter>
<filter id="filter1_i_13_33" x="6" y="80" width="48" height="47" filterUnits="userSpaceOnUse" color-interpolation-filters="sRGB">
<feFlood flood-opacity="0" result="BackgroundImageFix"/>
<feBlend mode="normal" in="SourceGraphic" in2="BackgroundImageFix" result="shape"/>
<feColorMatrix in="SourceAlpha" type="matrix" values="0 0 0 0 0 0 0 0 0 0 0 0 0 0 0 0 0 0 127 0" result="hardAlpha"/>
<feOffset dx="6" dy="10"/>
<feGaussianBlur stdDeviation="2"/>
<feComposite in2="hardAlpha" operator="arithmetic" k2="-1" k3="1"/>
<feColorMatrix type="matrix" values="0 0 0 0 0 0 0 0 0 0 0 0 0 0 0 0 0 0 0.5 0"/>
<feBlend mode="normal" in2="shape" result="effect1_innerShadow_13_33"/>
</filter>
<filter id="filter2_d_13_33" x="32.2041" y="48.3281" width="94.017" height="28.8975" filterUnits="userSpaceOnUse" color-interpolation-filters="sRGB">
<feFlood flood-opacity="0" result="BackgroundImageFix"/>
<feColorMatrix in="SourceAlpha" type="matrix" values="0 0 0 0 0 0 0 0 0 0 0 0 0 0 0 0 0 0 127 0" result="hardAlpha"/>
<feOffset dx="4" dy="8"/>
<feGaussianBlur stdDeviation="2"/>
<feComposite in2="hardAlpha" operator="out"/>
<feColorMatrix type="matrix" values="0 0 0 0 0 0 0 0 0 0 0 0 0 0 0 0 0 0 0.5 0"/>
<feBlend mode="normal" in2="BackgroundImageFix" result="effect1_dropShadow_13_33"/>
<feBlend mode="normal" in="SourceGraphic" in2="effect1_dropShadow_13_33" result="shape"/>
</filter>
<filter id="filter3_d_13_33" x="12" y="0" width="136" height="99.3189" filterUnits="userSpaceOnUse" color-interpolation-filters="sRGB">
<feFlood flood-opacity="0" result="BackgroundImageFix"/>
<feColorMatrix in="SourceAlpha" type="matrix" values="0 0 0 0 0 0 0 0 0 0 0 0 0 0 0 0 0 0 127 0" result="hardAlpha"/>
<feOffset dx="4" dy="8"/>
<feGaussianBlur stdDeviation="2"/>
<feComposite in2="hardAlpha" operator="out"/>
<feColorMatrix type="matrix" values="0 0 0 0 0 0 0 0 0 0 0 0 0 0 0 0 0 0 0.25 0"/>
<feBlend mode="normal" in2="BackgroundImageFix" result="effect1_dropShadow_13_33"/>
<feBlend mode="normal" in="SourceGraphic" in2="effect1_dropShadow_13_33" result="shape"/>
</filter>
<linearGradient id="paint0_linear_13_33" x1="121.5" y1="80" x2="121.5" y2="123" gradientUnits="userSpaceOnUse">
<stop stop-color="#403A3A"/>
<stop offset="1" stop-color="#D9D9D9" stop-opacity="0"/>
</linearGradient>
<linearGradient id="paint1_linear_13_33" x1="28" y1="80" x2="28" y2="123" gradientUnits="userSpaceOnUse">
<stop stop-color="#1D1D21"/>
<stop offset="1" stop-color="#D9D9D9" stop-opacity="0"/>
</linearGradient>
<linearGradient id="paint2_linear_13_33" x1="76" y1="0" x2="76" y2="144" gradientUnits="userSpaceOnUse">
<stop stop-color="#4C4C54"/>
<stop offset="1" stop-color="#353543" stop-opacity="0"/>
</linearGradient>
<clipPath id="clip0_13_33">
<rect width="153" height="123" fill="white"/>
</clipPath>
</defs>
</svg>
